<svg version="1.1" id="Layer_1" xmlns="http://www.w3.org/2000/svg" xmlns:xlink="http://www.w3.org/1999/xlink" x="0px" y="0px"
	 width="100%" viewBox="0 0 512 512" enable-background="new 0 0 512 512" xml:space="preserve">
<path fill="#17997A" opacity="1.000000" stroke="none" 
	d="
M0.999997,441.000000 
	C1.000000,318.644043 1.000000,196.288055 1.391372,73.591888 
	C2.296599,71.606674 2.806662,69.960464 3.324864,68.316826 
	C14.128164,34.050919 36.096760,11.445560 71.562500,2.872453 
	C72.157761,2.728560 72.525887,1.645050 73.000000,1.000001 
	C195.355972,1.000000 317.711945,1.000000 440.408173,1.391386 
	C442.393433,2.296631 444.039642,2.806685 445.683289,3.324884 
	C479.949219,14.128239 502.554626,36.096764 511.127411,71.562691 
	C511.271271,72.157898 512.354919,72.525948 513.000000,73.000000 
	C513.000000,195.355972 513.000000,317.711945 512.608643,440.408142 
	C511.703400,442.393311 511.193481,444.039551 510.675140,445.683136 
	C499.869659,479.946838 477.903748,502.555054 442.437256,511.127380 
	C441.842102,511.271271 441.474030,512.354919 441.000000,513.000000 
	C318.644043,513.000000 196.288055,513.000000 73.591873,512.608643 
	C71.606689,511.703461 69.960495,511.193451 68.316910,510.675140 
	C34.053204,499.869598 11.444845,477.903778 2.872618,442.437195 
	C2.728775,441.842041 1.645105,441.474030 0.999997,441.000000 
M194.877121,234.848801 
	C201.983063,238.051010 209.357605,240.768661 216.151093,244.534515 
	C258.595642,268.062988 288.999695,301.808411 303.691589,348.723755 
	C304.072784,349.940948 305.209961,350.921387 306.307648,352.653259 
	C314.743683,357.115814 323.789124,358.055481 332.992432,356.497345 
	C363.580505,351.318726 383.765381,332.975891 395.808411,305.228729 
	C409.587769,273.481140 410.900604,240.089966 407.425934,206.237381 
	C406.838501,200.513748 405.860443,194.830231 405.014221,188.780777 
	C369.568512,197.268341 337.991608,211.703201 310.338989,234.843628 
	C307.190765,230.346909 304.256714,225.680969 300.859406,221.381058 
	C279.582031,194.450684 251.420441,177.318909 219.972107,164.945236 
	C190.962479,153.531082 160.753662,147.236313 129.822800,144.210419 
	C121.643303,143.410217 113.400902,143.253006 104.954727,142.787750 
	C105.078209,170.491013 107.563652,196.970535 113.069283,223.118225 
	C120.290306,257.412811 131.478745,290.182465 152.130188,318.972626 
	C177.593842,354.471466 211.562637,373.993652 256.053497,372.901184 
	C266.223633,372.651459 276.002380,370.398376 285.616577,365.289948 
	C268.188263,312.215118 242.167435,265.920715 193.868805,235.175095 
	C193.868805,235.175095 194.125244,234.854568 194.877121,234.848801 
z"/>

<path fill="#FEFFFF" opacity="1.000000" stroke="none" 
	d="
M305.994598,352.012238 
	C305.209961,350.921387 304.072784,349.940948 303.691589,348.723755 
	C288.999695,301.808411 258.595642,268.062988 216.151093,244.534515 
	C209.357605,240.768661 201.983063,238.051010 194.323273,234.569824 
	C192.998566,234.290863 192.227722,234.290863 190.191467,234.290863 
	C192.153259,234.981812 192.882889,235.238785 193.612534,235.495758 
	C242.167435,265.920715 268.188263,312.215118 285.616577,365.289948 
	C276.002380,370.398376 266.223633,372.651459 256.053497,372.901184 
	C211.562637,373.993652 177.593842,354.471466 152.130188,318.972626 
	C131.478745,290.182465 120.290306,257.412811 113.069283,223.118225 
	C107.563652,196.970535 105.078209,170.491013 104.954727,142.787750 
	C113.400902,143.253006 121.643303,143.410217 129.822800,144.210419 
	C160.753662,147.236313 190.962479,153.531082 219.972107,164.945236 
	C251.420441,177.318909 279.582031,194.450684 300.859406,221.381058 
	C304.256714,225.680969 307.190765,230.346909 310.695496,235.381653 
	C322.204346,255.210724 328.371429,275.747894 327.103699,298.274750 
	C326.102142,316.071594 320.523224,332.076385 309.496613,346.155243 
	C308.105072,347.931976 307.151215,350.051514 305.994598,352.012238 
z"/>

<path fill="#B5E3D9" opacity="1.000000" stroke="none" 
	d="
M306.151123,352.332764 
	C307.151215,350.051514 308.105072,347.931976 309.496613,346.155243 
	C320.523224,332.076385 326.102142,316.071594 327.103699,298.274750 
	C328.371429,275.747894 322.204346,255.210724 310.977051,235.584778 
	C337.991608,211.703201 369.568512,197.268341 405.014221,188.780777 
	C405.860443,194.830231 406.838501,200.513748 407.425934,206.237381 
	C410.900604,240.089966 409.587769,273.481140 395.808411,305.228729 
	C383.765381,332.975891 363.580505,351.318726 332.992432,356.497345 
	C323.789124,358.055481 314.743683,357.115814 306.151123,352.332764 
z"/>

<path fill="#17997A" opacity="1.000000" stroke="none" 
	d="
M193.740662,235.335434 
	C192.882889,235.238785 192.153259,234.981812 190.191467,234.290863 
	C192.227722,234.290863 192.998566,234.290863 193.947327,234.572723 
	C194.125244,234.854568 193.868805,235.175095 193.740662,235.335434 
z"/>
</svg>
